# xmcd
#
# Track frame offsets:
#	150
#	13272
#	25832
#	39055
#	51732
#	65665
#	79742
#	93912
#	106570
#	120082
#	131167
#	144755
#	157650
#	171607
#	183752
#	196057
#
# Disc length: 2769 seconds
#
# Revision: 1
# Processed by: cddbd v1.5.2PL0 Copyright (c) Steve Scherf et al.
# Submitted via: audiograbber 1.83.01
#
DISCID=c20acf10
DTITLE=Jimmy Witherspoon - Nobody's Business
DYEAR=1947
DGENRE=Blues
TTITLE0=Wandering Gal Blues
TTITLE1=Hey Mr. Landlord
TTITLE2=Money's Getting Cheaper
TTITLE3=Skidrow Blues
TTITLE4=How Long Blues
TTITLE5=Ain't Nobody's Business
TTITLE6=Backwater Blues
TTITLE7=Frog-I-More
TTITLE8=In The Evening
TTITLE9=McShann Bounce
TTITLE10=Jumpin With Louis
TTITLE11=Long About Dawn
TTITLE12=Early Morning
TTITLE13=Six Foot Two Blues
TTITLE14=Spoon Calls Hootie
TTITLE15=Destruction Blues
EXTD=DA Music Release\n874721-2
EXTT0=Contemporary Blues/ From CD '' Nobody's Business "
EXTT1=Contemporary Blues/ From CD '' Nobody's Business "
EXTT2=Contemporary Blues/ From CD '' Nobody's Business "
EXTT3=Contemporary Blues/ From CD '' Nobody's Business "
EXTT4=Contemporary Blues/ From CD '' Nobody's Business "
EXTT5=Contemporary Blues/ From CD '' Nobody's Business "
EXTT6=Contemporary Blues/ From CD '' Nobody's Business "
EXTT7=Contemporary Blues/ From CD '' Nobody's Business "
EXTT8=Contemporary Blues/ From CD '' Nobody's Business "
EXTT9=Contemporary Blues/ From CD '' Nobody's Business "
EXTT10=Contemporary Blues/ From CD '' Nobody's Business "
EXTT11=Contemporary Blues/ From CD '' Nobody's Business "
EXTT12=Contemporary Blues/ From CD '' Nobody's Business "
EXTT13=Contemporary Blues/ From CD '' Nobody's Business "
EXTT14=Contemporary Blues/ From CD '' Nobody's Business "
EXTT15=Contemporary Blues/ From CD '' Nobody's Business "
PLAYORDER=
